Coordinates
version=1
nRows=16
nColumns=33
inDegrees=yes

Units are S.I. units (second, meters, Newtons, ...)
Angles are in degrees.

endheader
time	ground_thorax_rot_x	ground_thorax_rot_y	ground_thorax_rot_z	ground_thorax_tx	ground_thorax_ty	ground_thorax_tz	clav_prot_r	clav_elev_r	scapula_abduction_r	scapula_elevation_r	scapula_upward_rot_r	scapula_winging_r	shoulder_elv_r	plane_of_elev_r	axial_rot_r	elbow_flexion_r	pro_sup_r	wrist_flex_r	wrist_dev_r	clav_prot_l	clav_elev_l	scapula_abduction_l	scapula_elevation_l	scapula_upward_rot_l	scapula_winging_l	shoulder_elv_l	plane_of_elev_l	axial_rot_l	elbow_flexion_l	pro_sup_l	wrist_flex_l	wrist_dev_l
      5.98000000	    -37.84416489	    -12.33003840	     21.75583656	   -253.77074297	    826.16820125	      9.69461090	      6.99204329	    -45.00000000	     37.32180499	    -45.00000000	    -39.51770818	   2056.44159662	  -2627.01685402	    145.98846055	   -118.84432221	   1098.29856291	     75.32297064	     14.20038038	      1.26071648	     13.41350293	     36.78439212	    -33.39597966	    -45.00000000	    -45.00000000	  -2075.42049970	    988.13973622	    135.31872898	   -179.99999979	    733.43944550	     57.37705110	      0.04974012	    -18.95934963
      5.99000000	    -37.89698961	    -12.20774440	     21.82195654	   -252.81644151	    826.22256749	      9.60651022	      6.84951632	    -45.00000000	     37.14241548	    -45.00000000	    -39.32970094	   2056.59931781	  -2626.90389031	    145.98891464	   -119.05519892	   1098.32539384	     75.56140015	     14.09201475	      1.17476187	     13.53596901	     36.87823493	    -33.68672928	    -45.00000000	    -45.00000000	  -2075.39571837	    988.12399968	    135.37062044	   -179.99999979	    733.50775959	     57.36785677	      0.04843984	    -19.04441501
      6.00000000	    -37.75739702	    -12.40093961	     22.01185849	   -251.80218588	    826.27727958	      9.52095248	      6.81501999	    -45.00000000	     37.41151305	    -45.00000000	    -39.17375609	   2056.57985150	  -2626.94120523	    145.94653024	   -119.20178063	   1098.41705865	     75.77800683	     14.30153959	      1.22501266	     13.49981962	     36.80171276	    -33.46759461	    -45.00000000	    -45.00000000	  -2075.44427466	    988.30476601	    135.21169618	   -179.99999979	    733.53471280	     57.33638879	     -0.00336304	    -18.95999737
      6.01000000	    -37.89993005	    -12.13038990	     22.02363780	   -250.73376738	    826.33126972	      9.43927955	      6.82621253	    -45.00000000	     37.06736133	    -45.00000000	    -38.91977454	   2056.76483715	  -2626.82170489	    145.89959589	   -119.41191159	   1098.36998189	     75.93223550	     14.21858045	      1.14731532	     13.56151737	     36.88050549	    -34.14114035	    -45.00000000	    -45.00000000	  -2075.29917177	    988.05708896	    135.39952652	   -179.99999979	    733.60939384	     57.31301689	      0.01495251	    -19.09394100
      6.02000000	    -37.72053996	    -12.33271796	     22.30532342	   -249.60508224	    826.38350142	      9.36183554	      6.80785448	    -45.00000000	     37.52875940	    -45.00000000	    -38.62506333	   2056.54471543	  -2626.84700502	    145.82333215	   -119.57964726	   1098.41332443	     76.06737600	     14.37242250	      1.18849126	     13.39130994	     36.81283327	    -33.88220829	    -45.00000000	    -45.00000000	  -2075.37266239	    988.26832224	    135.29321905	   -179.99999979	    733.68838544	     57.24306383	     -0.05714524	    -18.99149941
      6.03000000	    -37.66925632	    -12.36579265	     22.41624647	   -248.42056392	    826.43148953	      9.29003306	      6.98641889	    -45.00000000	     37.56697139	    -45.00000000	    -38.21051142	   2056.56604965	  -2626.85826405	    145.80871648	   -119.72769982	   1098.48051802	     76.12978680	     14.41348832	      1.14280546	     13.37669257	     36.81451152	    -33.99658806	    -45.00000000	    -45.00000000	  -2075.32630771	    988.22707035	    135.26033745	   -179.99999979	    733.75715450	     57.17201673	     -0.06142594	    -19.05359165
      6.04000000	    -37.61821696	    -12.40355365	     22.63241386	   -247.17918428	    826.47188812	      9.22471534	      6.81424649	    -45.00000000	     37.54219956	    -45.00000000	    -38.04461576	   2056.64298295	  -2626.79677095	    145.77458532	   -119.88712367	   1098.46747588	     76.13389291	     14.47165594	      1.13955173	     13.37212777	     36.81496021	    -34.13495036	    -45.00000000	    -45.00000000	  -2075.30109308	    988.24145148	    135.22816048	   -179.99999979	    733.80879264	     57.07096214	     -0.08021956	    -19.06334144
      6.05000000	    -37.51543160	    -12.48074747	     22.82902769	   -245.87833867	    826.50083436	      9.16649340	      6.87517085	    -45.00000000	     37.68699871	    -45.00000000	    -37.74432703	   2056.66401493	  -2626.77214284	    145.76328867	   -120.07169551	   1098.47010259	     76.07087200	     14.58474297	      1.13593269	     13.34932054	     36.80016011	    -34.19412948	    -45.00000000	    -45.00000000	  -2075.31148952	    988.27704498	    135.21281579	   -179.99999979	    733.86659940	     56.94422582	     -0.09051363	    -19.09559754
      6.06000000	    -37.42856396	    -12.53650444	     23.02444069	   -244.51899542	    826.51314593	      9.11567621	      6.88209531	    -45.00000000	     37.76465422	    -45.00000000	    -37.44994925	   2056.69438668	  -2626.77029847	    145.73963595	   -120.22550344	   1098.43690756	     75.93101496	     14.67619922	      1.13740764	     13.32838904	     36.79861964	    -34.30195745	    -45.00000000	    -45.00000000	  -2075.30531523	    988.28839273	    135.17528307	   -179.99999979	    733.91936441	     56.78627493	     -0.09410026	    -19.13314374
      6.07000000	    -37.32781991	    -12.65585779	     23.26715362	   -243.09830072	    826.50829530	      9.07210366	      6.86800971	    -45.00000000	     37.86722368	    -45.00000000	    -37.22187837	   2056.75100868	  -2626.69230827	    145.73080827	   -120.33751591	   1098.46305949	     75.71471246	     14.78731846	      1.12910682	     13.29304073	     36.77804828	    -34.37218041	    -45.00000000	    -45.00000000	  -2075.30980934	    988.31154832	    135.17909982	   -179.99999979	    733.98287243	     56.59710141	     -0.09838211	    -19.16805865
      6.08000000	    -37.23342186	    -12.70741797	     23.44669682	   -241.61287619	    826.47953144	      9.03490071	      6.92974313	    -45.00000000	     37.99343100	    -45.00000000	    -36.86215242	   2056.74934801	  -2626.73718045	    145.70622382	   -120.48864383	   1098.37755844	     75.41955830	     14.90725325	      1.14836534	     13.29037067	     36.78642610	    -34.47774919	    -45.00000000	    -45.00000000	  -2075.31562094	    988.34747580	    135.11542936	   -179.99999979	    734.01264925	     56.37026558	     -0.08346892	    -19.22127177
      6.09000000	    -37.16462636	    -12.72980373	     23.64633447	   -240.06179664	    826.42211462	      9.00271266	      6.86212092	    -45.00000000	     38.03180738	    -45.00000000	    -36.60122251	   2056.82509556	  -2626.73749040	    145.70533773	   -120.55991291	   1098.32769135	     75.02448833	     15.01520516	      1.15985835	     13.34093742	     36.80066929	    -34.63582245	    -45.00000000	    -45.00000000	  -2075.31047991	    988.36991199	    135.05453187	   -179.99999979	    734.05603451	     56.09770361	     -0.06288660	    -19.28286003
      6.10000000	    -37.01302599	    -12.92053802	     23.90671449	   -238.43883987	    826.32743153	      8.97423607	      6.94862302	    -45.00000000	     38.18201929	    -45.00000000	    -36.31253377	   2056.82715054	  -2626.71096999	    145.65976695	   -120.64686388	   1098.32112520	     74.54389879	     15.15910294	      1.16871002	     13.23799129	     36.75330170	    -34.67290359	    -45.00000000	    -45.00000000	  -2075.32837860	    988.35718796	    135.08388170	   -179.99999979	    734.10909086	     55.78307058	     -0.04601460	    -19.33139051
      6.11000000	    -37.05412111	    -12.80726367	     23.92799092	   -236.74533322	    826.19471464	      8.94944971	      6.86903217	    -45.00000000	     38.19599970	    -45.00000000	    -35.89213955	   2056.91034941	  -2626.88752061	    145.63540312	   -120.78691560	   1098.12339759	     73.89541786	     15.28684760	      1.21983401	     13.44986859	     36.86088731	    -34.95435610	    -45.00000000	    -45.00000000	  -2075.26660389	    988.45341690	    134.89988946	   -179.99999979	    734.05332419	     55.39382218	      0.02939442	    -19.44117732
      6.12000000	    -36.83307463	    -13.04883709	     24.32118431	   -234.97275974	    826.01876901	      8.92908182	      6.92233505	    -45.00000000	     38.32208552	    -45.00000000	    -35.74599044	   2056.91520646	  -2626.78109225	    145.62991699	   -120.79582268	   1098.14061670	     73.16382737	     15.44788717	      1.23334429	     13.28772328	     36.75758672	    -34.94855559	    -45.00000000	    -45.00000000	  -2075.33271230	    988.41080296	    134.95747370	   -179.99999979	    734.15241281	     54.95696841	      0.05023501	    -19.48953708
      6.13000000	    -36.89178231	    -12.96113915	     24.29458240	   -233.12734814	    825.80155361	      8.91540468	      6.82626992	    -45.00000000	     38.37839241	    -45.00000000	    -35.21158629	   2057.01797233	  -2626.93877998	    145.59398226	   -120.99484033	   1097.96195452	     72.15691377	     15.63769902	      1.29569997	     13.61931291	     36.94017892	    -35.19789442	    -45.00000000	    -45.00000000	  -2075.22963910	    988.52676909	    134.75051052	   -179.99999979	    734.07669196	     54.40335942	      0.15607835	    -19.62263833
